<?xml version="1.0" encoding="UTF-8" standalone="no"?>
<!-- Created with Inkscape (http://www.inkscape.org/) -->

<svg
   width="255.67639mm"
   height="101.2785mm"
   viewBox="0 0 255.67639 101.2785"
   version="1.1"
   id="svg1"
   xml:space="preserve"
   inkscape:version="1.3 (0e150ed6c4, 2023-07-21)"
   sodipodi:docname="icon.svg"
   xmlns:inkscape="http://www.inkscape.org/namespaces/inkscape"
   xmlns:sodipodi="http://sodipodi.sourceforge.net/DTD/sodipodi-0.dtd"
   xmlns="http://www.w3.org/2000/svg"
   xmlns:svg="http://www.w3.org/2000/svg"><sodipodi:namedview
     id="namedview1"
     pagecolor="#ffffff"
     bordercolor="#000000"
     borderopacity="0.25"
     inkscape:showpageshadow="2"
     inkscape:pageopacity="0.0"
     inkscape:pagecheckerboard="0"
     inkscape:deskcolor="#d1d1d1"
     inkscape:document-units="mm"
     inkscape:zoom="0.40446788"
     inkscape:cx="233.64031"
     inkscape:cy="270.72607"
     inkscape:window-width="1920"
     inkscape:window-height="1013"
     inkscape:window-x="-9"
     inkscape:window-y="-9"
     inkscape:window-maximized="1"
     inkscape:current-layer="layer1" /><defs
     id="defs1" /><g
     inkscape:label="Livello 1"
     inkscape:groupmode="layer"
     id="layer1"
     transform="translate(0,-75.918986)"><path
       style="fill:#000000"
       d="M 46.613015,176.93119 C -13.272889,172.90237 -16.468,86.253663 42.908849,76.477331 c 4.5215,-0.74446 165.076411,-0.74446 169.597911,0 57.10699,9.402603 57.74297,89.521849 0.79375,99.994849 -3.2593,0.59939 -158.256483,1.0262 -166.687495,0.45901 z m 165.610445,-1.40317 c 56.54405,-9.86298 56.31895,-88.823734 -0.27939,-98.004875 -4.45417,-0.722536 -164.018365,-0.722536 -168.472532,0 -58.730645,9.527035 -55.321708,94.723455 3.935227,98.349515 7.622805,0.46645 162.017585,0.14361 164.816695,-0.34464 z M 57.196348,164.47086 C 12.803574,161.43787 9.8747471,96.526622 53.789989,88.976117 c 3.676043,-0.632036 144.159591,-0.632036 147.835631,0 42.153,7.247515 42.07277,68.080123 -0.0991,75.122173 -2.59448,0.43324 -138.314344,0.78358 -144.330202,0.37257 z m 143.801032,-1.34844 c 17.8284,-3.41219 30.21223,-17.12868 31.30214,-34.67064 0.0945,-1.52136 0.0945,-1.52136 -104.59172,-1.52136 -104.686237,0 -104.686237,0 -104.591713,1.52136 1.194074,19.2185 16.306762,34.02982 35.800053,35.08613 6.689385,0.36249 140.05409,-0.0275 142.08124,-0.41549 z m 31.1912,-39.56544 c -1.26086,-17.06585 -14.40674,-30.920058 -31.98495,-33.708361 -3.33376,-0.528811 -141.657889,-0.528811 -144.991657,0 -17.578205,2.788303 -30.724086,16.642511 -31.984946,33.708361 -0.171045,2.31511 -0.171045,2.31511 104.480773,2.31511 104.65183,0 104.65183,0 104.48078,-2.31511 z M 8.5130161,133.31307 c -7.86842902,-2.06892 -6.412654,-13.61232 1.7197919,-13.63689 8.844267,-0.0267 9.438216,13.04583 0.623639,13.72602 -0.852324,0.0658 -1.9068679,0.0257 -2.3434309,-0.0891 z m 4.3003259,-1.59097 c 5.115598,-2.63113 3.906212,-9.93401 -1.823108,-11.00884 -2.0891579,-0.39193 -4.8501049,1.14104 -5.9555949,3.30675 -2.467869,4.83466 2.941017,10.19028 7.7787029,7.70209 z m -4.9617839,-0.76851 c -4.661877,-2.54753 -2.645291,-9.52656 2.6750309,-9.25778 6.315527,0.31906 6.315527,9.35642 0,9.67547 -1.3452049,0.068 -1.9627819,-0.0285 -2.6750309,-0.41769 z m 235.7074519,2.41995 c -4.63023,-0.81292 -6.87388,-7.10521 -3.96458,-11.11858 3.03161,-4.18209 10.40328,-3.1406 12.05365,1.70296 1.847,5.42065 -2.43756,10.40784 -8.08907,9.41562 z m 4.42729,-1.81379 c 3.70728,-2.17261 4.04568,-7.00407 0.6712,-9.58306 -2.50389,-1.91364 -5.58323,-1.66364 -7.76014,0.63002 -4.48628,4.72687 1.46813,12.24705 7.08894,8.95304 z m -5.05187,-0.54824 c -4.60964,-2.40353 -3.21414,-9.05458 1.95459,-9.3157 3.19059,-0.16119 5.1555,1.68261 5.1555,4.83774 0,3.71667 -3.88162,6.16133 -7.11009,4.47796 z"
       id="path1" /></g></svg>
